<svg width="187" height="41" viewBox="0 0 187 41" fill="none" xmlns="http://www.w3.org/2000/svg">
<path d="M15.2934 32.97C5.75243 32.97 0.394427 29.21 0.394427 21.878V21.596H7.44443V22.442C7.44443 25.356 8.90143 26.531 15.2934 26.531C20.9334 26.531 22.2494 25.685 22.2494 23.57C22.2494 21.643 21.1684 20.938 17.9254 20.374L9.08943 19.105C3.44943 18.212 0.112427 15.392 0.112427 10.269C0.112427 5.522 3.96643 0.54 14.5414 0.54C24.2234 0.54 28.7354 5.005 28.7354 11.632V11.914H21.6384V11.256C21.6384 8.248 20.0874 6.979 13.8364 6.979C8.76043 6.979 7.20943 7.966 7.20943 9.987C7.20943 11.82 8.24343 12.478 10.8754 12.948L19.7114 14.358C26.7614 15.486 29.2994 18.917 29.2994 23.241C29.2994 28.364 25.3044 32.97 15.2934 32.97ZM36.4005 40.49H29.3505V8.953H35.8835V15.392H36.3535C37.1995 10.88 40.2075 8.483 45.7535 8.483C52.9915 8.483 57.0335 13.277 57.0335 20.75C57.0335 28.223 53.0855 32.97 45.9885 32.97C40.5365 32.97 37.5285 30.291 36.7295 26.155H36.4005V40.49ZM36.4005 21.079C36.4005 25.121 38.8445 26.531 43.2625 26.531C47.7745 26.531 49.8895 25.027 49.8895 20.75C49.8895 16.426 47.7745 14.969 43.3095 14.969C38.7505 14.969 36.4005 16.52 36.4005 20.703V21.079ZM64.1947 32.5H57.1447V1.01H64.1947V32.5ZM72.115 6.556H65.065V1.01H72.115V6.556ZM72.115 32.5H65.065V8.953H72.115V32.5ZM89.5762 32.5H83.7482C78.2492 32.5 74.9122 29.915 74.9122 23.993V14.781H71.1992V8.953H74.9122V4.394H81.9622V8.953H89.5762V14.781H81.9622V23.194C81.9622 25.544 82.8552 26.155 85.3462 26.155H89.5762V32.5ZM103.685 32.97C94.1436 32.97 88.7856 29.21 88.7856 21.878V21.596H95.8356V22.442C95.8356 25.356 97.2926 26.531 103.685 26.531C109.325 26.531 110.641 25.685 110.641 23.57C110.641 21.643 109.56 20.938 106.317 20.374L97.4806 19.105C91.8406 18.212 88.5036 15.392 88.5036 10.269C88.5036 5.522 92.3576 0.54 102.933 0.54C112.615 0.54 117.127 5.005 117.127 11.632V11.914H110.03V11.256C110.03 8.248 108.479 6.979 102.228 6.979C97.1516 6.979 95.6006 7.966 95.6006 9.987C95.6006 11.82 96.6346 12.478 99.2666 12.948L108.103 14.358C115.153 15.486 117.691 18.917 117.691 23.241C117.691 28.364 113.696 32.97 103.685 32.97ZM134.333 32.5H128.505C123.006 32.5 119.669 29.915 119.669 23.993V14.781H115.956V8.953H119.669V4.394H126.719V8.953H134.333V14.781H126.719V23.194C126.719 25.544 127.612 26.155 130.103 26.155H134.333V32.5ZM141.391 32.97C136.315 32.97 133.26 30.62 133.26 26.672C133.26 23.194 135.845 21.032 140.874 20.515L150.979 19.481V18.588C150.979 15.533 149.616 14.687 145.856 14.687C142.284 14.687 140.827 15.627 140.827 18.306V18.494H133.73V18.353C133.73 12.525 138.618 8.483 146.373 8.483C154.222 8.483 157.935 12.525 157.935 18.682V32.5H151.355V27.095H150.979C149.898 30.761 146.608 32.97 141.391 32.97ZM140.357 26.202C140.357 27.471 141.344 27.988 143.412 27.988C148.206 27.988 150.791 26.86 150.979 23.523L142.801 24.463C141.109 24.604 140.357 25.074 140.357 26.202ZM163.201 40.49H159.347V34.098H165.128C166.867 34.098 167.619 33.628 168.089 32.594L156.574 8.953H164.564L169.546 19.716L171.52 25.262H171.99L173.87 19.669L178.335 8.953H186.184L174.528 34.192C172.272 39.127 169.123 40.49 163.201 40.49Z" fill="#DA830D"/>
</svg>
